<svg class="ldi-1yeaju" width="100%" height="100%" xmlns="http://www.w3.org/2000/svg"
     xmlns:xlink="http://www.w3.org/1999/xlink" viewBox="0 0 100 100"
     preserveAspectRatio="xMidYMid"><!--?xml version="1.0" encoding="utf-8"?--><!--Generator: Adobe Illustrator 21.0.0, SVG Export Plug-In . SVG Version: 6.00 Build 0)-->
  <svg version="1.1" id="圖層_1" xmlns="http://www.w3.org/2000/svg" xmlns:xlink="http://www.w3.org/1999/xlink" x="0px"
       y="0px" viewBox="0 0 100 100" style="transform-origin: 50px 50px 0px;" xml:space="preserve"><g style="transform-origin: 50px 50px 0px;"><g style="transform-origin: 50px 50px 0px; transform: scale(0.6);"><g style="transform-origin: 50px 50px 0px;"><g><style type="text/css" class="ld ld-static" style="transform-origin: 50px 50px 0px; animation-duration: 1s; animation-delay: -1s; animation-direction: normal;">.st0{fill:#C7B299;stroke:#333333;stroke-width:6;stroke-miterlimit:10;} .st1{fill:#F5E169;} .st2{fill:#666666;} .st3{fill:#F5E6C8;} .st4{fill:#333333;} .st5{fill:#E0E0E0;} .st6{fill:#F8B26A;} .st7{fill:#FFFFFF;stroke:#000000;stroke-width:4;stroke-miterlimit:10;} .st8{fill:#F47E60;} .st9{fill:#ABBD81;} .st10{fill:#E15B64;} .st11{fill:#666666;stroke:#221E1F;stroke-width:4.5;stroke-linejoin:round;stroke-miterlimit:10;} .st12{fill:#FFFFFF;stroke:#221E1F;stroke-width:6;stroke-linejoin:round;stroke-miterlimit:10;} .st13{fill:#77A4BD;} .st14{fill:#FFDC6C;} .st15{fill:#FFFFFF;} .st16{fill:#353035;} .st17{fill:#E0E0E0;stroke:#000000;stroke-width:6;stroke-miterlimit:10;} .st18{fill:none;stroke:#000000;stroke-width:5;stroke-linecap:round;stroke-miterlimit:10;} .st19{fill:none;stroke:#000000;stroke-width:5;stroke-miterlimit:10;} .st20{fill:none;} .st21{fill:#666666;stroke:#221E1F;stroke-width:6;stroke-linejoin:round;stroke-miterlimit:10;} .st22{fill:#FFFFFF;stroke:#221E1F;stroke-width:4.5;stroke-linejoin:round;stroke-miterlimit:10;} .st23{fill:#333333;stroke:#221E1F;stroke-width:4.5;stroke-linejoin:round;stroke-miterlimit:10;} .st24{fill:#1BD112;} .st25{fill:#FFFFFF;stroke:#333333;stroke-width:8;stroke-miterlimit:10;} .st26{fill:none;stroke:#666666;stroke-width:8;stroke-miterlimit:10;} .st27{fill:#FFFFFF;stroke:#333333;stroke-miterlimit:10;} .st28{fill:none;stroke:#333333;stroke-miterlimit:10;} .st29{stroke:#333333;stroke-miterlimit:10;} .st30{fill:none;stroke:#000000;stroke-width:4;stroke-linecap:round;stroke-miterlimit:10;} .st31{fill:none;stroke:#000000;stroke-width:6;stroke-miterlimit:10;} .st32{fill:#C33737;} .st33{fill:#849B87;} .st34{fill:#66503A;} .st35{fill:none;stroke:#333333;stroke-width:6;stroke-miterlimit:10;} .st36{fill:none;stroke:#333333;stroke-width:4;stroke-miterlimit:10;} .st37{fill:#C59B6D;} .st38{fill:#E0E0E0;stroke:#221E1F;stroke-width:4.5;stroke-linejoin:round;stroke-miterlimit:10;} .st39{fill:#666666;stroke:#000000;stroke-width:3;stroke-miterlimit:10;} .st40{fill:#F5E6C8;stroke:#000000;stroke-width:3;stroke-miterlimit:10;} .st41{fill:#FFFFFF;stroke:#808080;stroke-width:4;stroke-miterlimit:10;} .st42{fill:#808080;stroke:#808080;stroke-width:4;stroke-miterlimit:10;} .st43{fill:#666666;stroke:#B3B3B3;stroke-width:12;stroke-linecap:round;stroke-miterlimit:10;} .st44{fill:#808080;} .st45{fill:#B3B3B3;} .st46{fill:#FFFF00;stroke:#E15B64;stroke-width:6;stroke-linecap:round;stroke-linejoin:round;stroke-miterlimit:10;} .st47{fill:none;stroke:#E15B64;stroke-width:6;stroke-linecap:round;stroke-linejoin:round;stroke-miterlimit:10;} .st48{fill:#F5E6C8;stroke:#333333;stroke-width:4;stroke-miterlimit:10;}</style><g
    class="ld ld-static"
    style="transform-origin: 50px 50px 0px; animation-duration: 1s; animation-delay: -0.909091s; animation-direction: normal;"><path d="M90,14.8c0-0.1,0-0.3,0-0.4c0-0.1,0-0.1,0-0.2c0-0.1-0.1-0.2-0.1-0.3c0,0,0,0,0-0.1c0,0-0.1-0.1-0.1-0.1 c-0.1-0.1-0.1-0.2-0.2-0.2c-0.1-0.1-0.1-0.1-0.2-0.1c0,0-0.1-0.1-0.1-0.1c0,0-0.1,0-0.1-0.1c-0.1,0-0.1-0.1-0.2-0.1 c-0.1,0-0.2,0-0.3,0c-0.1,0-0.1,0-0.2,0c-0.1,0-0.2,0-0.3,0.1c0,0-0.1,0-0.1,0L10.9,45.9c-0.5,0.2-0.9,0.7-0.9,1.3 c0,0.6,0.3,1.1,0.8,1.4l15.6,8.6c0.2,0.1,0.5,0.2,0.7,0.2c0.3,0,0.6-0.1,0.8-0.3l48-32.3L38.3,61.6c-0.3,0.3-0.4,0.7-0.4,1.1v22.8 c0,0.6,0.4,1.2,1,1.4c0.2,0.1,0.3,0.1,0.5,0.1c0.5,0,0.9-0.2,1.2-0.6l11.4-15l18.9,10.4c0.4,0.2,0.9,0.2,1.3,0.1 c0.4-0.2,0.7-0.5,0.8-1L90,15c0,0,0,0,0,0C90,14.9,90,14.9,90,14.8z" fill="#b5ccf1" style="fill: rgb(2, 201, 220);"></path></g><metadata
    xmlns:d="https://loading.io/stock/" class="ld ld-static"
    style="transform-origin: 50px 50px 0px; animation-duration: 1s; animation-delay: -0.818182s; animation-direction: normal;">
<d:name class="ld ld-static"
        style="transform-origin: 50px 50px 0px; animation-duration: 1s; animation-delay: -0.727273s; animation-direction: normal;">paper plane</d:name>
    <d:tags class="ld ld-static"
            style="transform-origin: 50px 50px 0px; animation-duration: 1s; animation-delay: -0.636364s; animation-direction: normal;">fly,send,fire,take off,aviation,paper plane,web application</d:tags>
    <d:license class="ld ld-static"
               style="transform-origin: 50px 50px 0px; animation-duration: 1s; animation-delay: -0.545455s; animation-direction: normal;">cc-by</d:license>
    <d:slug class="ld ld-static"
            style="transform-origin: 50px 50px 0px; animation-duration: 1s; animation-delay: -0.454545s; animation-direction: normal;">1yeaju</d:slug>
</metadata></g></g></g></g>
    <style type="text/css" class="ld ld-static"
           style="transform-origin: 50px 50px 0px; animation-duration: 1s; animation-delay: -0.363636s; animation-direction: normal;"></style></svg>
</svg>
