<svg class="ldi-mlw2f9" width="60%" height="60%" xmlns="http://www.w3.org/2000/svg" xmlns:xlink="http://www.w3.org/1999/xlink" viewBox="0 0 100 100" preserveAspectRatio="xMidYMid"><!--?xml version="1.0" encoding="utf-8"?--><!--Generator: Adobe Illustrator 21.0.0, SVG Export Plug-In . SVG Version: 6.00 Build 0)--><svg version="1.1" id="Layer_1" xmlns="http://www.w3.org/2000/svg" xmlns:xlink="http://www.w3.org/1999/xlink" x="0px" y="0px" viewBox="0 0 100 100" style="transform-origin: 50px 50px 0px;" xml:space="preserve"><g style="transform-origin: 50px 50px 0px;"><g style="transform-origin: 50px 50px 0px; transform: scale(0.4);"><g style="transform-origin: 50px 50px 0px;"><g><style type="text/css" class="ld ld-spin" style="transform-origin: 50px 50px 0px; animation-duration: 1s; animation-delay: -1s; animation-direction: normal;">.st0{fill:#F4E6C8;} .st1{opacity:0.8;fill:#849B87;} .st2{fill:#D65A62;} .st3{fill:#E15C64;} .st4{fill:#F47E5F;} .st5{fill:#F7B26A;} .st6{fill:#FEE8A2;} .st7{fill:#ACBD81;} .st8{fill:#F5E169;} .st9{fill:#F0AF6B;} .st10{fill:#EA7C60;} .st11{fill:#A8B980;} .st12{fill:#829985;} .st13{fill:#798AAE;} .st14{fill:#8672A7;} .st15{fill:#CC5960;} .st16{fill:#E17A5F;} .st17{fill:#849B87;} .st18{opacity:0.8;fill:#E15C64;} .st19{opacity:0.8;fill:#F7B26A;} .st20{fill:#79A5B5;} .st21{opacity:0.8;fill:#79A5B4;} .st22{fill:#666766;}</style><g class="ld ld-spin" style="transform-origin: 50px 50px 0px; animation-duration: 1s; animation-delay: -0.923077s; animation-direction: normal;"><path class="st3" d="M90,49.3c-1.7-2.6-4-4.9-6.9-6.5c2-2.6,3.2-5.7,3.6-8.8c-2.6-1.8-5.6-3-8.8-3.4c0.8-3.2,0.8-6.4,0-9.5 c-3.1-0.7-6.3-0.6-9.5,0.3c-0.5-3.2-1.8-6.2-3.7-8.7c-3.1,0.5-6.1,1.8-8.6,3.9c-1.7-2.8-4-5.1-6.7-6.7c-2.6,1.7-4.9,4-6.5,6.9 c-2.6-2-5.7-3.2-8.8-3.6c-1.8,2.6-3,5.6-3.4,8.8c-3.2-0.8-6.4-0.8-9.5,0c-0.7,3.1-0.6,6.3,0.3,9.5c-3.2,0.5-6.2,1.8-8.7,3.7 c0.5,3.1,1.8,6.1,3.9,8.6c-2.8,1.7-5.1,4-6.7,6.7c1.7,2.6,4,4.9,6.9,6.5c-2,2.6-3.2,5.7-3.6,8.8c2.6,1.8,5.6,3,8.8,3.4 c-0.8,3.2-0.8,6.4,0,9.5c3.1,0.7,6.3,0.6,9.5-0.3c0.5,3.2,1.8,6.2,3.7,8.7c3.1-0.5,6.1-1.8,8.6-3.9c1.7,2.8,4,5.1,6.7,6.7 c2.6-1.7,4.9-4,6.5-6.9c2.6,2,5.7,3.2,8.8,3.6c1.8-2.6,3-5.6,3.4-8.8c3.2,0.8,6.4,0.8,9.5,0c0.7-3.1,0.6-6.3-0.3-9.5 c3.2-0.5,6.2-1.8,8.7-3.7c-0.5-3.1-1.8-6.1-3.9-8.6C86.2,54.4,88.4,52,90,49.3z M65.8,64.6c-0.2,0.2-0.4,0.5-0.7,0.7 c-3.7,3.7-8.8,6-14.3,6.3c-0.3,0-0.6,0-0.9,0c-0.1,0-0.2,0-0.3,0c-5.6,0-10.8-2.1-14.7-5.6c-0.2-0.2-0.4-0.3-0.5-0.5 c-4-3.8-6.6-9.1-6.9-15c0-0.2,0-0.4,0-0.5c0-0.2,0-0.4,0-0.5c0-4,1.1-7.7,2.9-10.9c0.1-0.1,0.2-0.3,0.2-0.4c0.2-0.3,0.4-0.6,0.5-0.9 c2.3-3.4,5.6-6.3,9.7-8c0.1,0,0.1-0.1,0.2-0.1c0.1,0,0.2-0.1,0.3-0.1c5.5-2.2,11.4-2,16.5,0.1c0.2,0.1,0.4,0.2,0.7,0.3 c4.9,2.2,9,6.1,11.3,11.4c0.1,0.1,0.1,0.2,0.2,0.3c0.1,0.2,0.1,0.3,0.2,0.5c2,5.2,1.9,10.8,0.1,15.7c-0.1,0.3-0.2,0.6-0.3,0.9 c-0.2,0.6-0.5,1.2-0.8,1.7c-0.1,0.2-0.2,0.3-0.3,0.5c-0.2,0.3-0.4,0.6-0.6,0.9C67.5,62.7,66.7,63.7,65.8,64.6z" fill="#93dbe9" style="fill: rgb(147, 219, 233);"></path></g><g class="ld ld-spin" style="transform-origin: 50px 50px 0px; animation-duration: 1s; animation-delay: -0.846154s; animation-direction: normal;"><path class="st4" d="M79.7,45.6c-1.5-1.8-3.5-3.3-5.8-4.2c1.2-2.1,1.8-4.5,1.8-6.9c-2.1-1.1-4.4-1.7-6.9-1.6c0.3-2.4-0.1-4.9-1-7 c-2.3-0.2-4.7,0.1-7,1.1c-0.7-2.4-1.9-4.5-3.6-6.1c-2.2,0.7-4.3,1.9-6,3.7c-1.5-1.9-3.5-3.4-5.7-4.3c-1.8,1.5-3.3,3.5-4.2,5.8 c-2.1-1.2-4.5-1.8-6.9-1.8c-1.1,2.1-1.7,4.4-1.6,6.9c-2.4-0.3-4.9,0.1-7,1c-0.2,2.3,0.1,4.7,1.1,7c-2.4,0.7-4.5,1.9-6.1,3.6 c0.7,2.2,1.9,4.3,3.7,6c-1.9,1.5-3.4,3.5-4.3,5.7c1.5,1.8,3.5,3.3,5.8,4.2c-1.2,2.1-1.8,4.5-1.8,6.9c2.1,1.1,4.4,1.7,6.9,1.6 c-0.3,2.4,0.1,4.9,1,7c2.3,0.2,4.7-0.1,7-1.1c0.7,2.4,1.9,4.5,3.6,6.1c2.2-0.7,4.3-1.9,6-3.7c1.5,1.9,3.5,3.4,5.7,4.3 c1.8-1.5,3.3-3.5,4.2-5.8c2.1,1.2,4.5,1.8,6.9,1.8c1.1-2.1,1.7-4.4,1.6-6.9c2.4,0.3,4.9-0.1,7-1c0.2-2.3-0.1-4.7-1.1-7 c2.4-0.7,4.5-1.9,6.1-3.6c-0.7-2.2-1.9-4.3-3.7-6C77.3,49.7,78.8,47.8,79.7,45.6z M63.2,59.3c-0.1,0.2-0.3,0.4-0.4,0.6 c-2.4,3.1-5.9,5.3-10,6.1c-0.2,0-0.4,0.1-0.7,0.1c-0.1,0-0.2,0-0.2,0c-4.2,0.6-8.2-0.5-11.5-2.7c-0.2-0.1-0.3-0.2-0.5-0.3 c-3.4-2.4-5.8-6.1-6.6-10.5c0-0.1-0.1-0.3-0.1-0.4c0-0.1-0.1-0.3-0.1-0.4c-0.4-3,0-5.8,1.1-8.4c0-0.1,0.1-0.2,0.1-0.3 c0.1-0.2,0.2-0.5,0.3-0.7c1.4-2.8,3.5-5.2,6.4-6.9c0,0,0.1-0.1,0.1-0.1c0.1,0,0.1-0.1,0.2-0.1c3.9-2.2,8.3-2.6,12.3-1.6 c0.2,0,0.3,0.1,0.5,0.2c3.9,1.1,7.3,3.7,9.5,7.4c0,0.1,0.1,0.2,0.2,0.2c0.1,0.1,0.1,0.2,0.2,0.3c2,3.7,2.5,7.8,1.6,11.7 c-0.1,0.2-0.1,0.5-0.2,0.7c-0.1,0.5-0.3,0.9-0.4,1.4c-0.1,0.1-0.1,0.3-0.2,0.4c-0.1,0.3-0.2,0.5-0.3,0.8 C64.2,57.7,63.7,58.5,63.2,59.3z" fill="#689cc5" style="fill: rgb(104, 156, 197);"></path></g><g class="ld ld-spin" style="transform-origin: 50px 50px 0px; animation-duration: 1s; animation-delay: -0.769231s; animation-direction: normal;"><path class="st5" d="M69.4,44.4c-1.2-1.1-2.6-1.9-4.2-2.3c0.6-1.5,0.8-3.2,0.6-4.7c-1.5-0.5-3.1-0.7-4.8-0.5c0-1.7-0.5-3.2-1.3-4.6 c-1.6,0.1-3.2,0.5-4.6,1.4c-0.7-1.5-1.7-2.8-2.9-3.8c-1.4,0.7-2.7,1.7-3.7,3c-1.2-1.2-2.6-2-4.2-2.4c-1.1,1.2-1.9,2.6-2.3,4.2 c-1.5-0.6-3.2-0.8-4.7-0.6c-0.5,1.5-0.7,3.1-0.5,4.8c-1.7,0-3.2,0.5-4.6,1.3c0.1,1.6,0.5,3.2,1.4,4.6c-1.5,0.7-2.8,1.7-3.8,2.9 c0.7,1.4,1.7,2.7,3,3.7c-1.2,1.2-2,2.6-2.4,4.2c1.2,1.1,2.6,1.9,4.2,2.3c-0.6,1.5-0.8,3.2-0.6,4.7c1.5,0.5,3.1,0.7,4.8,0.5 c0,1.7,0.5,3.2,1.3,4.6c1.6-0.1,3.2-0.5,4.6-1.4c0.7,1.5,1.7,2.8,2.9,3.8c1.4-0.7,2.7-1.7,3.7-3c1.2,1.2,2.6,2,4.2,2.4 c1.1-1.2,1.9-2.6,2.3-4.2c1.5,0.6,3.2,0.8,4.7,0.6c0.5-1.5,0.7-3.1,0.5-4.8c1.7,0,3.2-0.5,4.6-1.3c-0.1-1.6-0.5-3.2-1.4-4.6 c1.5-0.7,2.8-1.7,3.8-2.9c-0.7-1.4-1.7-2.7-3-3.7C68.2,47.4,69,46,69.4,44.4z M59.6,55.1c-0.1,0.1-0.1,0.3-0.2,0.4 c-1.3,2.3-3.5,4.1-6.2,5c-0.1,0-0.3,0.1-0.4,0.1c-0.1,0-0.1,0-0.2,0.1c-2.8,0.7-5.5,0.4-7.9-0.8c-0.1-0.1-0.2-0.1-0.3-0.2 c-2.5-1.3-4.4-3.6-5.3-6.4c0-0.1-0.1-0.2-0.1-0.3c0-0.1-0.1-0.2-0.1-0.3c-0.5-1.9-0.5-3.9,0-5.7c0-0.1,0-0.2,0.1-0.2 c0-0.2,0.1-0.3,0.2-0.5c0.7-2,1.9-3.8,3.7-5.2c0,0,0.1,0,0.1-0.1c0,0,0.1-0.1,0.1-0.1c2.4-1.8,5.3-2.5,8.1-2.1c0.1,0,0.2,0,0.4,0.1 c2.7,0.4,5.2,1.8,7,4.1c0,0.1,0.1,0.1,0.1,0.1c0.1,0.1,0.1,0.1,0.1,0.2c1.7,2.3,2.4,5,2.1,7.6c0,0.2,0,0.3,0,0.5 c0,0.3-0.1,0.6-0.2,1c0,0.1-0.1,0.2-0.1,0.3c0,0.2-0.1,0.4-0.1,0.5C60.2,53.9,59.9,54.5,59.6,55.1z" fill="#5e6fa3" style="fill: rgb(94, 111, 163);"></path></g><metadata xmlns:d="https://loading.io/stock/" class="ld ld-spin" style="transform-origin: 50px 50px 0px; animation-duration: 1s; animation-delay: -0.692308s; animation-direction: normal;">
<d:name class="ld ld-spin" style="transform-origin: 50px 50px 0px; animation-duration: 1s; animation-delay: -0.615385s; animation-direction: normal;">flower</d:name>
<d:tags class="ld ld-spin" style="transform-origin: 50px 50px 0px; animation-duration: 1s; animation-delay: -0.538462s; animation-direction: normal;">blossom,plant,petal,sunflower,cosmos,rose,hydrangea,flower,spinner</d:tags>
<d:license class="ld ld-spin" style="transform-origin: 50px 50px 0px; animation-duration: 1s; animation-delay: -0.461538s; animation-direction: normal;">rf</d:license>
<d:slug class="ld ld-spin" style="transform-origin: 50px 50px 0px; animation-duration: 1s; animation-delay: -0.384615s; animation-direction: normal;">mlw2f9</d:slug>
</metadata></g></g></g></g><style type="text/css" class="ld ld-spin" style="transform-origin: 50px 50px 0px; animation-duration: 1s; animation-delay: -0.307692s; animation-direction: normal;">@keyframes ld-spin {
  0% {
    -webkit-transform: rotate(0);
    transform: rotate(0);
    animation-timing-function: cubic-bezier(0.55, 0.055, 0.675, 0.19);
  }
  50% {
    -webkit-transform: rotate(180deg);
    transform: rotate(180deg);
    animation-timing-function: cubic-bezier(0.215, 0.61, 0.355, 1);
  }
  100% {
    -webkit-transform: rotate(360deg);
    transform: rotate(360deg);
  }
}
@-webkit-keyframes ld-spin {
  0% {
    -webkit-transform: rotate(0);
    transform: rotate(0);
    animation-timing-function: cubic-bezier(0.55, 0.055, 0.675, 0.19);
  }
  50% {
    -webkit-transform: rotate(180deg);
    transform: rotate(180deg);
    animation-timing-function: cubic-bezier(0.215, 0.61, 0.355, 1);
  }
  100% {
    -webkit-transform: rotate(360deg);
    transform: rotate(360deg);
  }
}
.ld.ld-spin {
  -webkit-animation: ld-spin 1s infinite;
  animation: ld-spin 1s infinite;
}
</style></svg></svg>
