<svg class="ldi-u5xvk2" width="100%" height="100%" xmlns="http://www.w3.org/2000/svg"
     xmlns:xlink="http://www.w3.org/1999/xlink" viewBox="0 0 100 100"
     preserveAspectRatio="xMidYMid"><!--?xml version="1.0" encoding="utf-8"?--><!--Generator: Adobe Illustrator 21.0.0, SVG Export Plug-In . SVG Version: 6.00 Build 0)-->
  <svg version="1.1" id="圖層_1" xmlns="http://www.w3.org/2000/svg" xmlns:xlink="http://www.w3.org/1999/xlink" x="0px"
       y="0px" viewBox="0 0 100 100" style="transform-origin: 50px 50px 0px;" xml:space="preserve"><g style="transform-origin: 50px 50px 0px;"><g style="transform-origin: 50px 50px 0px; transform: scale(0.6);"><g style="transform-origin: 50px 50px 0px;"><g><style type="text/css" class="ld ld-static" style="transform-origin: 50px 50px 0px; animation-duration: 1s; animation-delay: -1s; animation-direction: normal;">.st0{fill:#849B87;stroke:#333333;stroke-width:3;stroke-miterlimit:10;} .st1{fill:#A0C8D7;stroke:#333333;stroke-width:3;stroke-miterlimit:10;} .st2{fill:#F5E6C8;} .st3{fill:#ABBD81;} .st4{fill:#F5E6C8;stroke:#000000;stroke-width:2.5;stroke-miterlimit:10;} .st5{fill:#333333;} .st6{fill:#F5E6C8;stroke:#000000;stroke-width:3.5;stroke-miterlimit:10;} .st7{fill:#849B87;} .st8{fill:#F5E6C8;stroke:#333333;stroke-width:4;stroke-miterlimit:10;} .st9{fill:#C33737;} .st10{fill:#A0C8D7;} .st11{fill:#F5E6C8;stroke:#333333;stroke-width:3;stroke-miterlimit:10;} .st12{fill:#A3A3A3;} .st13{fill:#F5E6C8;stroke:#000000;stroke-width:3.8621;stroke-miterlimit:10;} .st14{fill:#FFDC6C;} .st15{fill:#ABBD81;stroke:#333333;stroke-width:3;stroke-miterlimit:10;} .st16{fill:#E15B64;} .st17{fill:#F5E6C8;stroke:#333333;stroke-width:3.6781;stroke-miterlimit:10;} .st18{fill:#F5E6C8;stroke:#333333;stroke-width:2.7586;stroke-miterlimit:10;} .st19{fill:#F5E6C8;stroke:#333333;stroke-width:3.9518;stroke-miterlimit:10;} .st20{fill:#FFFFFF;stroke:#333333;stroke-width:3.9092;stroke-miterlimit:10;} .st21{fill:#FFFFFF;stroke:#333333;stroke-width:3.6699;stroke-miterlimit:10;} .st22{fill:#F5E6C8;stroke:#000000;stroke-width:3;stroke-miterlimit:10;} .st23{fill:#F47E60;} .st24{fill:#F8B26A;} .st25{fill:#FFFFFF;} .st26{fill:#F5E6C8;stroke:#000000;stroke-width:3.9059;stroke-miterlimit:10;} .st27{fill:#F5E6C8;stroke:#000000;stroke-width:4;stroke-miterlimit:10;} .st28{fill:#C33636;} .st29{fill:#F5E6C8;stroke:#000000;stroke-width:3.8153;stroke-miterlimit:10;} .st30{fill:#E0E0E0;} .st31{fill:#F5E6C8;stroke:#000000;stroke-width:2.9643;stroke-miterlimit:10;} .st32{fill:#E15B64;stroke:#000000;stroke-width:2.9419;stroke-miterlimit:10;} .st33{fill:#666666;} .st34{fill:#FCEDCE;} .st35{fill:#FFF2D9;} .st36{fill:#7A8F7C;} .st37{fill:#96B099;}</style><g
    class="ld ld-static"
    style="transform-origin: 50px 50px 0px; animation-duration: 1s; animation-delay: -0.923077s; animation-direction: normal;"><path class="st2" d="M43.139,80.242c1.423,0.742,3.365,1.753,4.205,1.78c3.046-0.117,5.865-0.172,8.865-0.172 c1.708,0,3.297,0.017,4.878,0.035c1.549,0.016,3.089,0.033,4.728,0.033c3.247,0,6.177-0.066,9.503-0.213 c0.422-0.019,0.873-0.027,1.345-0.033c4.548-0.066,5.473-0.578,5.505-3.048c0.013-1.023,0.021-1.536-4.17-1.759 c-0.562-0.03-1.108-0.06-1.614-0.109l0.177-4.84l0.471-0.005c0.343,0,0.715,0.008,1.107,0.014c0.406,0.008,0.834,0.017,1.273,0.017 c4.914,0,4.923-1.323,4.931-2.489c0.016-2.155-0.933-3.325-6.165-3.744l-0.062-4.83l0.827-0.084c5.31-0.532,7.838-1.216,7.838-3.659 c0-0.906,0-3.03-7.772-3.142l-0.058-4.849l0.66-0.024c6.161-0.208,8.039-1.116,8.039-3.886c0-2.506-4.592-3.032-7.328-3.122 c-1.975-0.065-4.17,0.033-6.523,0.136c-3.149,0.139-6.548,0.246-8.997,0.047l-2.969-0.24l1.181-4.03 c1.568-5.309,2.514-8.514,1.521-13.765c-0.78-4.124-3.577-6.495-7.739-6.277C56.027,29.18,52.435,46.25,38.137,51.72 c0.103,4.573,0.027,9.051-0.047,13.4c-0.071,4.196-0.144,8.514-0.055,12.887C39.719,78.462,41.45,79.362,43.139,80.242z" fill="rgb(245, 230, 200)" style="fill: rgb(245, 230, 200);"></path></g><g
    class="ld ld-static"
    style="transform-origin: 50px 50px 0px; animation-duration: 1s; animation-delay: -0.846154s; animation-direction: normal;"><path d="M89.302,51.795c1.866-1.265,3.198-3.292,3.198-6.559c0-2.828-1.562-7.625-12.021-7.969 c-2.124-0.068-4.551,0.036-6.894,0.137c-1.799,0.079-3.659,0.159-5.381,0.163c1.352-4.701,2.171-8.524,1.096-14.207 c-1.195-6.311-5.839-10.232-12.118-10.232c-1.025,0-2.089,0.107-3.166,0.321l-1.871,0.371l-0.082,1.906 c-0.414,9.764-3.039,26.418-15.532,31.366l-0.016,35.552c1.24,0.271,2.956,1.158,4.384,1.902c2.299,1.197,4.47,2.328,6.479,2.328 l0.093-0.002c3.005-0.117,5.781-0.171,8.738-0.171c1.691,0,3.262,0.017,4.826,0.035c1.565,0.016,3.122,0.033,4.78,0.033 c3.276,0,6.364-0.069,9.717-0.219c0.376-0.016,0.78-0.022,1.2-0.027c3.306-0.049,10.186-0.147,10.286-7.835 c0.017-1.42-0.281-2.531-0.788-3.403c1.95-1.21,2.943-3.145,2.962-5.795c0.019-2.542-0.802-4.32-2.018-5.566 c2.496-1.164,4.458-3.175,4.458-6.785C91.632,54.671,90.69,52.97,89.302,51.795z M79.61,49.122l-0.66,0.024l0.058,4.849 c7.772,0.112,7.772,2.236,7.772,3.142c0,2.443-2.528,3.126-7.838,3.659l-0.827,0.084l0.062,4.83c5.231,0.419,6.18,1.589,6.165,3.744 c-0.008,1.165-0.017,2.489-4.931,2.489c-0.439,0-0.867-0.01-1.273-0.017c-0.392-0.006-0.764-0.014-1.107-0.014l-0.471,0.005 l-0.177,4.84c0.505,0.049,1.052,0.079,1.614,0.109c4.191,0.223,4.183,0.736,4.17,1.759c-0.032,2.47-0.957,2.981-5.505,3.048 c-0.472,0.006-0.924,0.014-1.345,0.033c-3.325,0.147-6.256,0.213-9.503,0.213c-1.639,0-3.179-0.017-4.728-0.033 c-1.581-0.017-3.169-0.035-4.878-0.035c-3,0-5.819,0.055-8.865,0.172c-0.84-0.027-2.782-1.037-4.205-1.78 c-1.69-0.88-3.42-1.78-5.105-2.236c-0.088-4.372-0.016-8.691,0.055-12.887c0.074-4.349,0.15-8.827,0.047-13.4 c14.298-5.47,17.89-22.539,18.658-33.733c4.162-0.218,6.959,2.152,7.739,6.277c0.993,5.25,0.047,8.456-1.521,13.765l-1.181,4.03 l2.969,0.24c2.449,0.199,5.849,0.092,8.997-0.047c2.353-0.103,4.548-0.201,6.523-0.136c2.736,0.09,7.328,0.616,7.328,3.122 C87.649,48.006,85.772,48.914,79.61,49.122z" fill="rgb(0, 0, 0)" style="fill: rgb(0, 0, 0);"></path></g><g
    class="ld ld-static"
    style="transform-origin: 50px 50px 0px; animation-duration: 1s; animation-delay: -0.769231s; animation-direction: normal;"><path class="st7" d="M35.164,44.428h-0.417H15.585c-4.465,0-8.085,3.62-8.085,8.085V77.17c0,4.465,3.62,8.085,8.085,8.085h19.163 h0.417c1.593,0,2.92-1.119,3.25-2.612l0.016-35.552C38.12,45.571,36.776,44.428,35.164,44.428z" fill="rgb(132, 155, 135)" style="fill: rgb(200, 20, 10);"></path></g><metadata
    xmlns:d="https://loading.io/stock/" class="ld ld-static"
    style="transform-origin: 50px 50px 0px; animation-duration: 1s; animation-delay: -0.692308s; animation-direction: normal;">
<d:name class="ld ld-static"
        style="transform-origin: 50px 50px 0px; animation-duration: 1s; animation-delay: -0.615385s; animation-direction: normal;">like</d:name>
    <d:tags class="ld ld-static"
            style="transform-origin: 50px 50px 0px; animation-duration: 1s; animation-delay: -0.538462s; animation-direction: normal;">great,good,thumb up,accept,ok,appreciate,like,conversation</d:tags>
    <d:license class="ld ld-static"
               style="transform-origin: 50px 50px 0px; animation-duration: 1s; animation-delay: -0.461538s; animation-direction: normal;">cc-by</d:license>
    <d:slug class="ld ld-static"
            style="transform-origin: 50px 50px 0px; animation-duration: 1s; animation-delay: -0.384615s; animation-direction: normal;">u5xvk2</d:slug>
</metadata></g></g></g></g>
    <style type="text/css" class="ld ld-static"
           style="transform-origin: 50px 50px 0px; animation-duration: 1s; animation-delay: -0.307692s; animation-direction: normal;"></style></svg>
</svg>
